<?xml version="1.0" encoding="utf-8"?>
<!-- Generator: Adobe Illustrator 25.4.1, SVG Export Plug-In . SVG Version: 6.00 Build 0)  -->
<svg version="1.1" id="레이어_1" xmlns="http://www.w3.org/2000/svg" xmlns:xlink="http://www.w3.org/1999/xlink" x="0px"
	 y="0px" viewBox="0 0 283.5 283.5" style="enable-background:new 0 0 283.5 283.5;" xml:space="preserve">
<style type="text/css">
	.st0{fill:#F4F4F4;}
	.st1{fill:#1D1D1B;}
</style>
<rect class="st0" width="283.5" height="283.5"/>
<g>
	<circle class="st1" cx="121.1" cy="121" r="9.3"/>
	<path class="st1" d="M141.7,171.8c19,0,35.6-8.6,44.6-21.3c2.8-3.9-0.1-9.3-4.9-9.3c-1.9,0-3.7,0.9-4.8,2.4
		c-6.8,9.7-19.8,16.2-34.9,16.2c-15,0-28.1-6.6-34.9-16.2c-1.1-1.6-2.9-2.4-4.8-2.4c-4.8,0-7.7,5.4-4.9,9.3
		C106.1,163.2,122.8,171.8,141.7,171.8z"/>
	<circle class="st1" cx="162.3" cy="121" r="9.3"/>
</g>
</svg>
